<?xml version="1.0" encoding="UTF-8" standalone="no"?>
<!DOCTYPE svg PUBLIC "-//W3C//DTD SVG 1.1//EN"
 "http://www.w3.org/Graphics/SVG/1.1/DTD/svg11.dtd">
<!-- Generated by graphviz version 2.48.0 (20210717.1556)
 -->
<!-- Pages: 1 -->
<svg width="666pt" height="1434pt"
 viewBox="0.00 0.00 666.00 1433.97" xmlns="http://www.w3.org/2000/svg" xmlns:xlink="http://www.w3.org/1999/xlink">
<g id="graph0" class="graph" transform="scale(1 1) rotate(0) translate(4 1429.97)">
<polygon fill="white" stroke="transparent" points="-4,4 -4,-1429.97 662,-1429.97 662,4 -4,4"/>
<!-- 17 -->
<g id="node1" class="node">
<title>17</title>
<ellipse fill="none" stroke="black" cx="526" cy="-1050.41" rx="80.72" ry="122.16"/>
<text text-anchor="middle" x="526" y="-1121.71" font-family="Times,serif" font-size="14.00">var</text>
<text text-anchor="middle" x="526" y="-1106.71" font-family="Times,serif" font-size="14.00">n[t]</text>
<text text-anchor="middle" x="526" y="-1091.71" font-family="Times,serif" font-size="14.00">p[go.e….co/apm]</text>
<text text-anchor="middle" x="526" y="-1076.71" font-family="Times,serif" font-size="14.00">s[package]</text>
<text text-anchor="middle" x="526" y="-1061.71" font-family="Times,serif" font-size="14.00">s[module]</text>
<text text-anchor="middle" x="526" y="-1046.71" font-family="Times,serif" font-size="14.00">t[stru…c.Pool}]</text>
<text text-anchor="middle" x="526" y="-1031.71" font-family="Times,serif" font-size="14.00">t[go.e….Tracer]</text>
<text text-anchor="middle" x="526" y="-1016.71" font-family="Times,serif" font-size="14.00">tf[Named]</text>
<text text-anchor="middle" x="526" y="-1001.71" font-family="Times,serif" font-size="14.00">tf[Pointer]</text>
<text text-anchor="middle" x="526" y="-986.71" font-family="Times,serif" font-size="14.00">tf[Struct]</text>
<text text-anchor="middle" x="526" y="-971.71" font-family="Times,serif" font-size="14.00">v[receiver]</text>
</g>
<!-- 22 -->
<g id="node2" class="node">
<title>22</title>
<ellipse fill="none" stroke="black" cx="525" cy="-754.75" rx="80.72" ry="111.95"/>
<text text-anchor="middle" x="525" y="-818.55" font-family="Times,serif" font-size="14.00">var</text>
<text text-anchor="middle" x="525" y="-803.55" font-family="Times,serif" font-size="14.00">n[inst…nternal]</text>
<text text-anchor="middle" x="525" y="-788.55" font-family="Times,serif" font-size="14.00">p[go.e….co/apm]</text>
<text text-anchor="middle" x="525" y="-773.55" font-family="Times,serif" font-size="14.00">s[package]</text>
<text text-anchor="middle" x="525" y="-758.55" font-family="Times,serif" font-size="14.00">s[module]</text>
<text text-anchor="middle" x="525" y="-743.55" font-family="Times,serif" font-size="14.00">t[stru…ruct{}}]</text>
<text text-anchor="middle" x="525" y="-728.55" font-family="Times,serif" font-size="14.00">t[go.e…nConfig]</text>
<text text-anchor="middle" x="525" y="-713.55" font-family="Times,serif" font-size="14.00">tf[Named]</text>
<text text-anchor="middle" x="525" y="-698.55" font-family="Times,serif" font-size="14.00">tf[Pointer]</text>
<text text-anchor="middle" x="525" y="-683.55" font-family="Times,serif" font-size="14.00">tf[Struct]</text>
</g>
<!-- 17&#45;&gt;22 -->
<g id="edge1" class="edge">
<title>17&#45;&gt;22</title>
<path fill="none" stroke="black" d="M525.59,-927.84C525.53,-911.12 525.47,-893.94 525.41,-877.22"/>
<polygon fill="black" stroke="black" points="528.91,-876.86 525.38,-866.87 521.91,-876.88 528.91,-876.86"/>
<text text-anchor="middle" x="548" y="-898.88" font-family="Times,serif" font-size="14.00">contains</text>
</g>
<!-- 18 -->
<g id="node3" class="node">
<title>18</title>
<ellipse fill="none" stroke="black" cx="543" cy="-101.12" rx="80.72" ry="90.52"/>
<text text-anchor="middle" x="543" y="-149.92" font-family="Times,serif" font-size="14.00">var</text>
<text text-anchor="middle" x="543" y="-134.92" font-family="Times,serif" font-size="14.00">n[f]</text>
<text text-anchor="middle" x="543" y="-119.92" font-family="Times,serif" font-size="14.00">p[go.e….co/apm]</text>
<text text-anchor="middle" x="543" y="-104.92" font-family="Times,serif" font-size="14.00">s[module]</text>
<text text-anchor="middle" x="543" y="-89.92" font-family="Times,serif" font-size="14.00">s[package]</text>
<text text-anchor="middle" x="543" y="-74.92" font-family="Times,serif" font-size="14.00">t[func…Config)]</text>
<text text-anchor="middle" x="543" y="-59.92" font-family="Times,serif" font-size="14.00">tf[Signature]</text>
<text text-anchor="middle" x="543" y="-44.92" font-family="Times,serif" font-size="14.00">v[param]</text>
</g>
<!-- 20 -->
<g id="node4" class="node">
<title>20</title>
<ellipse fill="none" stroke="black" cx="168" cy="-364.96" rx="80.72" ry="111.95"/>
<text text-anchor="middle" x="168" y="-428.76" font-family="Times,serif" font-size="14.00">var</text>
<text text-anchor="middle" x="168" y="-413.76" font-family="Times,serif" font-size="14.00">n[oldConfig]</text>
<text text-anchor="middle" x="168" y="-398.76" font-family="Times,serif" font-size="14.00">p[go.e….co/apm]</text>
<text text-anchor="middle" x="168" y="-383.76" font-family="Times,serif" font-size="14.00">s[package]</text>
<text text-anchor="middle" x="168" y="-368.76" font-family="Times,serif" font-size="14.00">s[module]</text>
<text text-anchor="middle" x="168" y="-353.76" font-family="Times,serif" font-size="14.00">t[stru…ruct{}}]</text>
<text text-anchor="middle" x="168" y="-338.76" font-family="Times,serif" font-size="14.00">t[go.e…nConfig]</text>
<text text-anchor="middle" x="168" y="-323.76" font-family="Times,serif" font-size="14.00">tf[Named]</text>
<text text-anchor="middle" x="168" y="-308.76" font-family="Times,serif" font-size="14.00">tf[Pointer]</text>
<text text-anchor="middle" x="168" y="-293.76" font-family="Times,serif" font-size="14.00">tf[Struct]</text>
</g>
<!-- 21 -->
<g id="node5" class="node">
<title>21</title>
<ellipse fill="none" stroke="black" cx="285" cy="-101.12" rx="80.72" ry="101.23"/>
<text text-anchor="middle" x="285" y="-157.42" font-family="Times,serif" font-size="14.00">var</text>
<text text-anchor="middle" x="285" y="-142.42" font-family="Times,serif" font-size="14.00">n[newConfig]</text>
<text text-anchor="middle" x="285" y="-127.42" font-family="Times,serif" font-size="14.00">p[go.e….co/apm]</text>
<text text-anchor="middle" x="285" y="-112.42" font-family="Times,serif" font-size="14.00">s[module]</text>
<text text-anchor="middle" x="285" y="-97.42" font-family="Times,serif" font-size="14.00">s[package]</text>
<text text-anchor="middle" x="285" y="-82.42" font-family="Times,serif" font-size="14.00">t[stru…ruct{}}]</text>
<text text-anchor="middle" x="285" y="-67.42" font-family="Times,serif" font-size="14.00">t[go.e…nConfig]</text>
<text text-anchor="middle" x="285" y="-52.42" font-family="Times,serif" font-size="14.00">tf[Named]</text>
<text text-anchor="middle" x="285" y="-37.42" font-family="Times,serif" font-size="14.00">tf[Struct]</text>
</g>
<!-- 23 -->
<g id="node6" class="node">
<title>23</title>
<ellipse fill="none" stroke="black" cx="526" cy="-1324.85" rx="42.35" ry="26.74"/>
<text text-anchor="middle" x="526" y="-1328.65" font-family="Times,serif" font-size="14.00">block</text>
<text text-anchor="middle" x="526" y="-1313.65" font-family="Times,serif" font-size="14.00">b[entry]</text>
</g>
<!-- 23&#45;&gt;17 -->
<g id="edge2" class="edge">
<title>23&#45;&gt;17</title>
<path fill="none" stroke="black" d="M526,-1297.73C526,-1270.73 526,-1226.5 526,-1182.91"/>
<polygon fill="black" stroke="black" points="529.5,-1182.75 526,-1172.75 522.5,-1182.75 529.5,-1182.75"/>
<text text-anchor="middle" x="537.5" y="-1194.54" font-family="Times,serif" font-size="14.00">decl</text>
</g>
<!-- 23&#45;&gt;18 -->
<g id="edge3" class="edge">
<title>23&#45;&gt;18</title>
<path fill="none" stroke="black" d="M543.87,-1300.43C564.67,-1271.89 598.43,-1221.42 616,-1172.74 634.52,-1121.39 635,-1105.99 635,-1051.41 635,-1051.41 635,-1051.41 635,-363.96 635,-302.61 612.24,-237.51 589.36,-187.57"/>
<polygon fill="black" stroke="black" points="592.5,-186.01 585.1,-178.43 586.15,-188.97 592.5,-186.01"/>
<text text-anchor="middle" x="646.5" y="-603.22" font-family="Times,serif" font-size="14.00">decl</text>
</g>
<!-- 25 -->
<g id="node7" class="node">
<title>25</title>
<ellipse fill="none" stroke="black" cx="281" cy="-1050.41" rx="33.88" ry="26.74"/>
<text text-anchor="middle" x="281" y="-1054.21" font-family="Times,serif" font-size="14.00">block</text>
<text text-anchor="middle" x="281" y="-1039.21" font-family="Times,serif" font-size="14.00">b[for]</text>
</g>
<!-- 23&#45;&gt;25 -->
<g id="edge4" class="edge">
<title>23&#45;&gt;25</title>
<path fill="none" stroke="black" d="M518.27,-1298.21C507.7,-1267.73 485.75,-1217.6 449,-1190.74 418.88,-1168.72 398.1,-1193.34 367,-1172.74 334.51,-1151.21 310.44,-1112.89 296.15,-1085.06"/>
<polygon fill="black" stroke="black" points="299.26,-1083.47 291.68,-1076.07 293,-1086.58 299.26,-1083.47"/>
<text text-anchor="middle" x="476.5" y="-1194.54" font-family="Times,serif" font-size="14.00">flow</text>
</g>
<!-- 24 -->
<g id="node8" class="node">
<title>24</title>
<ellipse fill="none" stroke="black" cx="146" cy="-754.75" rx="37.45" ry="26.74"/>
<text text-anchor="middle" x="146" y="-758.55" font-family="Times,serif" font-size="14.00">block</text>
<text text-anchor="middle" x="146" y="-743.55" font-family="Times,serif" font-size="14.00">b[exit]</text>
</g>
<!-- 25&#45;&gt;24 -->
<g id="edge5" class="edge">
<title>25&#45;&gt;24</title>
<path fill="none" stroke="black" d="M269.1,-1025.1C256.99,-1000.51 237.55,-961.47 220,-928.08 207.97,-905.19 202.83,-900.56 192,-877.08 178.9,-848.67 166.47,-815.38 157.85,-790.87"/>
<polygon fill="black" stroke="black" points="161.1,-789.56 154.51,-781.27 154.49,-791.86 161.1,-789.56"/>
<text text-anchor="middle" x="231.5" y="-898.88" font-family="Times,serif" font-size="14.00">alt&#45;flow</text>
</g>
<!-- 26 -->
<g id="node9" class="node">
<title>26</title>
<ellipse fill="none" stroke="black" cx="282" cy="-754.75" rx="80.72" ry="122.16"/>
<text text-anchor="middle" x="282" y="-826.05" font-family="Times,serif" font-size="14.00">block</text>
<text text-anchor="middle" x="282" y="-811.05" font-family="Times,serif" font-size="14.00">b[define]</text>
<text text-anchor="middle" x="282" y="-796.05" font-family="Times,serif" font-size="14.00">f[go.e…nConfig]</text>
<text text-anchor="middle" x="282" y="-781.05" font-family="Times,serif" font-size="14.00">p[go.e….co/apm]</text>
<text text-anchor="middle" x="282" y="-766.05" font-family="Times,serif" font-size="14.00">s[package]</text>
<text text-anchor="middle" x="282" y="-751.05" font-family="Times,serif" font-size="14.00">s[module]</text>
<text text-anchor="middle" x="282" y="-736.05" font-family="Times,serif" font-size="14.00">t[stru…ruct{}}]</text>
<text text-anchor="middle" x="282" y="-721.05" font-family="Times,serif" font-size="14.00">t[go.e…nConfig]</text>
<text text-anchor="middle" x="282" y="-706.05" font-family="Times,serif" font-size="14.00">tf[Named]</text>
<text text-anchor="middle" x="282" y="-691.05" font-family="Times,serif" font-size="14.00">tf[Pointer]</text>
<text text-anchor="middle" x="282" y="-676.05" font-family="Times,serif" font-size="14.00">tf[Struct]</text>
</g>
<!-- 25&#45;&gt;26 -->
<g id="edge6" class="edge">
<title>25&#45;&gt;26</title>
<path fill="none" stroke="black" d="M281.09,-1023.35C281.19,-992.49 281.38,-938.79 281.55,-887.56"/>
<polygon fill="black" stroke="black" points="285.05,-887.37 281.59,-877.35 278.05,-887.34 285.05,-887.37"/>
<text text-anchor="middle" x="294.5" y="-898.88" font-family="Times,serif" font-size="14.00">flow</text>
</g>
<!-- 26&#45;&gt;20 -->
<g id="edge7" class="edge">
<title>26&#45;&gt;20</title>
<path fill="none" stroke="black" d="M233.47,-656.5C222.87,-632.41 212.58,-606.34 205,-581.42 195.69,-550.78 188.49,-516.94 183.03,-485.32"/>
<polygon fill="black" stroke="black" points="186.43,-484.43 181.32,-475.15 179.53,-485.59 186.43,-484.43"/>
<text text-anchor="middle" x="216.5" y="-550.85" font-family="Times,serif" font-size="14.00">decl</text>
</g>
<!-- 27 -->
<g id="node10" class="node">
<title>27</title>
<ellipse fill="none" stroke="black" cx="284" cy="-554.55" rx="46.84" ry="26.74"/>
<text text-anchor="middle" x="284" y="-558.35" font-family="Times,serif" font-size="14.00">block</text>
<text text-anchor="middle" x="284" y="-543.35" font-family="Times,serif" font-size="14.00">b[define]</text>
</g>
<!-- 26&#45;&gt;27 -->
<g id="edge8" class="edge">
<title>26&#45;&gt;27</title>
<path fill="none" stroke="black" d="M283.23,-632.18C283.37,-617.58 283.51,-603.66 283.63,-591.8"/>
<polygon fill="black" stroke="black" points="287.14,-591.55 283.74,-581.51 280.14,-591.48 287.14,-591.55"/>
<text text-anchor="middle" x="296.5" y="-603.22" font-family="Times,serif" font-size="14.00">flow</text>
</g>
<!-- 27&#45;&gt;20 -->
<g id="edge9" class="edge">
<title>27&#45;&gt;20</title>
<path fill="none" stroke="black" d="M255.69,-532.97C247.65,-526.19 239.37,-518.19 233,-509.68 224.6,-498.46 216.96,-485.98 210.11,-473.19"/>
<polygon fill="black" stroke="black" points="213.21,-471.56 205.5,-464.3 207,-474.79 213.21,-471.56"/>
<text text-anchor="middle" x="252" y="-498.48" font-family="Times,serif" font-size="14.00">dir&#45;use</text>
</g>
<!-- 27&#45;&gt;21 -->
<g id="edge10" class="edge">
<title>27&#45;&gt;21</title>
<path fill="none" stroke="black" d="M284.06,-527.66C284.19,-467.85 284.52,-317.22 284.76,-212.25"/>
<polygon fill="black" stroke="black" points="288.26,-212.25 284.78,-202.24 281.26,-212.23 288.26,-212.25"/>
<text text-anchor="middle" x="296.5" y="-361.26" font-family="Times,serif" font-size="14.00">decl</text>
</g>
<!-- 28 -->
<g id="node11" class="node">
<title>28</title>
<ellipse fill="none" stroke="black" cx="396" cy="-364.96" rx="63.78" ry="58.88"/>
<text text-anchor="middle" x="396" y="-391.26" font-family="Times,serif" font-size="14.00">block</text>
<text text-anchor="middle" x="396" y="-376.26" font-family="Times,serif" font-size="14.00">b[expression]</text>
<text text-anchor="middle" x="396" y="-361.26" font-family="Times,serif" font-size="14.00">ou[&amp;]</text>
<text text-anchor="middle" x="396" y="-346.26" font-family="Times,serif" font-size="14.00">t[()]</text>
<text text-anchor="middle" x="396" y="-331.26" font-family="Times,serif" font-size="14.00">tf[Tuple]</text>
</g>
<!-- 27&#45;&gt;28 -->
<g id="edge11" class="edge">
<title>27&#45;&gt;28</title>
<path fill="none" stroke="black" d="M298.64,-529.02C314.28,-502.84 339.63,-460.38 360.54,-425.35"/>
<polygon fill="black" stroke="black" points="363.63,-427 365.75,-416.62 357.62,-423.41 363.63,-427"/>
<text text-anchor="middle" x="329.5" y="-498.48" font-family="Times,serif" font-size="14.00">flow</text>
</g>
<!-- 28&#45;&gt;18 -->
<g id="edge12" class="edge">
<title>28&#45;&gt;18</title>
<path fill="none" stroke="black" d="M424.87,-312.54C444.97,-276.73 472.24,-228.16 495.51,-186.71"/>
<polygon fill="black" stroke="black" points="498.57,-188.41 500.41,-177.97 492.46,-184.98 498.57,-188.41"/>
<text text-anchor="middle" x="483" y="-224.03" font-family="Times,serif" font-size="14.00">call</text>
</g>
<!-- 28&#45;&gt;21 -->
<g id="edge13" class="edge">
<title>28&#45;&gt;21</title>
<path fill="none" stroke="black" d="M373.14,-310.02C359.71,-278.35 342.33,-237.35 326.56,-200.14"/>
<polygon fill="black" stroke="black" points="329.71,-198.61 322.58,-190.77 323.26,-201.34 329.71,-198.61"/>
<text text-anchor="middle" x="359" y="-224.03" font-family="Times,serif" font-size="14.00">dir&#45;use</text>
</g>
<!-- 29 -->
<g id="node12" class="node">
<title>29</title>
<ellipse fill="none" stroke="red" cx="281" cy="-1324.85" rx="76.24" ry="101.23"/>
<text text-anchor="middle" x="281" y="-1381.15" font-family="Times,serif" font-size="14.00">block</text>
<text text-anchor="middle" x="281" y="-1366.15" font-family="Times,serif" font-size="14.00">b[if]</text>
<text text-anchor="middle" x="281" y="-1351.15" font-family="Times,serif" font-size="14.00">f[sync…Pointer]</text>
<text text-anchor="middle" x="281" y="-1336.15" font-family="Times,serif" font-size="14.00">ou[&amp;]</text>
<text text-anchor="middle" x="281" y="-1321.15" font-family="Times,serif" font-size="14.00">p[sync/atomic]</text>
<text text-anchor="middle" x="281" y="-1306.15" font-family="Times,serif" font-size="14.00">t[unsa…Pointer]</text>
<text text-anchor="middle" x="281" y="-1291.15" font-family="Times,serif" font-size="14.00">t[bool]</text>
<text text-anchor="middle" x="281" y="-1276.15" font-family="Times,serif" font-size="14.00">tf[Basic]</text>
<text text-anchor="middle" x="281" y="-1261.15" font-family="Times,serif" font-size="14.00">tf[Pointer]</text>
</g>
<!-- 28&#45;&gt;29 -->
<g id="edge14" class="edge">
<title>28&#45;&gt;29</title>
<path fill="none" stroke="black" d="M395.68,-424.02C394.63,-519.03 390.2,-713.52 372,-877.08 369.46,-899.95 366.44,-905.32 363,-928.08 344.41,-1051.06 359.02,-1085.29 328,-1205.74 326.2,-1212.72 324.1,-1219.84 321.8,-1226.95"/>
<polygon fill="black" stroke="black" points="318.41,-1226.04 318.54,-1236.63 325.05,-1228.27 318.41,-1226.04"/>
<text text-anchor="middle" x="401.5" y="-751.05" font-family="Times,serif" font-size="14.00">flow</text>
</g>
<!-- 29&#45;&gt;17 -->
<g id="edge15" class="edge">
<title>29&#45;&gt;17</title>
<path fill="none" stroke="black" d="M343.29,-1265.82C362.81,-1247.04 384.16,-1225.86 403,-1205.74 416.15,-1191.7 418.85,-1187.64 431,-1172.74 440,-1161.7 449.36,-1150.01 458.54,-1138.41"/>
<polygon fill="black" stroke="black" points="461.41,-1140.43 464.87,-1130.41 455.92,-1136.09 461.41,-1140.43"/>
<text text-anchor="middle" x="424.5" y="-1194.54" font-family="Times,serif" font-size="14.00">use</text>
</g>
<!-- 29&#45;&gt;22 -->
<g id="edge18" class="edge">
<title>29&#45;&gt;22</title>
<path fill="none" stroke="black" d="M334.14,-1251.75C342.96,-1237.1 351.13,-1221.37 357,-1205.74 400.85,-1088.95 350.48,-1043.41 398,-928.08 406.06,-908.51 432.08,-872.26 458.48,-838.03"/>
<polygon fill="black" stroke="black" points="461.47,-839.89 464.83,-829.85 455.94,-835.6 461.47,-839.89"/>
<text text-anchor="middle" x="417" y="-1046.71" font-family="Times,serif" font-size="14.00">dir&#45;use</text>
</g>
<!-- 29&#45;&gt;20 -->
<g id="edge16" class="edge">
<title>29&#45;&gt;20</title>
<path fill="none" stroke="black" d="M211.97,-1281.48C144.87,-1234.39 53,-1151.63 53,-1051.41 53,-1051.41 53,-1051.41 53,-553.55 53,-512.35 73.41,-472.56 97.04,-440.31"/>
<polygon fill="black" stroke="black" points="99.87,-442.37 103.11,-432.28 94.29,-438.15 99.87,-442.37"/>
<text text-anchor="middle" x="72" y="-751.05" font-family="Times,serif" font-size="14.00">dir&#45;use</text>
</g>
<!-- 29&#45;&gt;21 -->
<g id="edge17" class="edge">
<title>29&#45;&gt;21</title>
<path fill="none" stroke="black" d="M208.64,-1292.12C125.38,-1250.13 0,-1167.6 0,-1051.41 0,-1051.41 0,-1051.41 0,-363.96 0,-254.56 115.28,-178.4 199.21,-137.45"/>
<polygon fill="black" stroke="black" points="200.75,-140.6 208.25,-133.12 197.72,-134.28 200.75,-140.6"/>
<text text-anchor="middle" x="19" y="-603.22" font-family="Times,serif" font-size="14.00">dir&#45;use</text>
</g>
<!-- 29&#45;&gt;25 -->
<g id="edge19" class="edge">
<title>29&#45;&gt;25</title>
<path fill="none" stroke="black" d="M281,-1223.56C281,-1175.99 281,-1122.12 281,-1087.5"/>
<polygon fill="black" stroke="black" points="284.5,-1087.41 281,-1077.41 277.5,-1087.41 284.5,-1087.41"/>
<text text-anchor="middle" x="302.5" y="-1194.54" font-family="Times,serif" font-size="14.00">alt&#45;flow</text>
</g>
<!-- 30 -->
<g id="node13" class="node">
<title>30</title>
<ellipse fill="none" stroke="black" cx="165" cy="-1050.41" rx="45.92" ry="26.74"/>
<text text-anchor="middle" x="165" y="-1054.21" font-family="Times,serif" font-size="14.00">block</text>
<text text-anchor="middle" x="165" y="-1039.21" font-family="Times,serif" font-size="14.00">b[return]</text>
</g>
<!-- 29&#45;&gt;30 -->
<g id="edge20" class="edge">
<title>29&#45;&gt;30</title>
<path fill="none" stroke="black" d="M243.82,-1236.52C222.1,-1185.52 195.89,-1123.97 179.84,-1086.27"/>
<polygon fill="black" stroke="black" points="182.93,-1084.58 175.79,-1076.75 176.49,-1087.33 182.93,-1084.58"/>
<text text-anchor="middle" x="242.5" y="-1194.54" font-family="Times,serif" font-size="14.00">flow</text>
</g>
<!-- 30&#45;&gt;24 -->
<g id="edge21" class="edge">
<title>30&#45;&gt;24</title>
<path fill="none" stroke="black" d="M163.31,-1023.35C159.91,-970.78 152.22,-851.93 148.34,-791.9"/>
<polygon fill="black" stroke="black" points="151.82,-791.5 147.68,-781.75 144.84,-791.95 151.82,-791.5"/>
<text text-anchor="middle" x="168.5" y="-898.88" font-family="Times,serif" font-size="14.00">flow</text>
</g>
</g>
</svg>
